<svg viewBox="0 0 24 24" xmlns="http://www.w3.org/2000/svg">
<path fill-rule="evenodd" clip-rule="evenodd" d="M1.68 1.68C4.03065e-06 3.3744 4.02234e-06 6.0888 4.02234e-06 11.52V12.48L1.99854e-06 12.6163C-0.000117324 17.9639 -0.000177383 20.6541 1.68 22.32C3.3744 24 6.0888 24 11.52 24H12.48L12.6158 24C17.9638 24.0001 20.654 24.0002 22.32 22.32C24 20.6257 24 17.9112 24 12.48V11.52L24 11.3842C24.0001 6.03618 24.0002 3.34596 22.32 1.68C20.6257 4.03065e-06 17.9112 4.02234e-06 12.48 4.02234e-06H11.52L11.3837 1.99854e-06C6.03599 -0.000117324 3.3459 -0.000177383 1.68 1.68ZM12.0253 12.2381C14.0273 12.2381 15.6593 10.6061 15.6593 8.60415C15.6593 6.60221 14.0273 4.97021 12.0253 4.97021C10.0016 4.97021 8.36963 6.60221 8.36963 8.60415C8.36963 10.6061 10.0016 12.2381 12.0253 12.2381ZM12.0253 7.1027C12.8522 7.1027 13.5268 7.77726 13.5268 8.60415C13.5268 9.43103 12.8522 10.1056 12.0253 10.1056C11.1984 10.1056 10.5239 9.43103 10.5239 8.60415C10.5021 7.77726 11.1767 7.1027 12.0253 7.1027ZM13.4827 15.2217C14.2225 15.0475 14.9406 14.7647 15.5933 14.3512C16.0938 14.0466 16.2461 13.372 15.9198 12.8715C15.6152 12.3711 14.9406 12.2187 14.4401 12.5451C12.9604 13.4808 11.0238 13.4808 9.54407 12.5451C9.04359 12.2405 8.39079 12.3711 8.06439 12.8715C7.78151 13.372 7.93382 14.0248 8.43431 14.3295C9.08711 14.7429 9.80519 15.0258 10.545 15.1999L8.52134 17.2236C8.10791 17.6371 8.10791 18.3116 8.52134 18.7251C8.73896 18.9426 9.00007 19.0297 9.28296 19.0297C9.56584 19.0297 9.82696 18.9208 10.0446 18.7251L12.0465 16.7231L14.0484 18.7251C14.4619 19.1385 15.1364 19.1385 15.5498 18.7251C15.9633 18.3116 15.9633 17.6371 15.5498 17.2236L13.4827 15.2217Z" />
</svg>
