<svg viewBox="0 0 25 24"  xmlns="http://www.w3.org/2000/svg">
<path d="M1.58113 10.61C7.75513 7.78751 11.8721 5.92678 13.932 5.02777C19.8136 2.46091 21.0357 2.01502 21.8323 2.00014C22.0075 1.99706 22.3992 2.04262 22.6529 2.25866C22.8672 2.44108 22.9262 2.68751 22.9544 2.86046C22.9826 3.03342 23.0177 3.42741 22.9898 3.73527C22.6711 7.2491 21.2919 15.7763 20.5903 19.7118C20.2935 21.3771 19.7089 21.9354 19.143 21.9901C17.9131 22.1088 16.9792 21.1373 15.788 20.3179C13.924 19.0359 12.8709 18.2378 11.0616 16.9867C8.97061 15.5409 10.3261 14.7462 11.5178 13.4476C11.8296 13.1077 17.2485 7.93594 17.3534 7.46679C17.3665 7.40811 17.3787 7.18939 17.2549 7.0739C17.131 6.95841 16.9483 6.99791 16.8164 7.02932C16.6294 7.07384 13.6517 9.13899 7.88309 13.2248C7.03787 13.8338 6.27229 14.1305 5.58635 14.1149C4.83017 14.0978 3.37557 13.6663 2.29422 13.2975C0.967909 12.8451 -0.0862189 12.606 0.00557196 11.8377C0.0533823 11.4375 0.578568 11.0283 1.58113 10.61Z" />
</svg>
