<svg xmlns="http://www.w3.org/2000/svg" viewBox="0 0 16 16">
    <path fill-rule="evenodd" clip-rule="evenodd" d="M16 8.00277C15.9982 12.4126 12.4096 16 8 16L7.99724 15.9995C6.56443 15.9996 5.15796 15.6145 3.92501 14.8846L3.63289 14.7116L0.605026 15.5053L1.41356 12.5547L1.22297 12.2524C0.421917 10.9775 -0.00206349 9.50197 7.55123e-06 7.99631C7.55123e-06 3.58699 3.59043 0 8.00323 0C9.05383 0.00036352 10.0941 0.207656 11.0645 0.610041C12.035 1.01243 12.9167 1.60202 13.6593 2.34516C14.4019 3.0883 14.9908 3.97042 15.3924 4.94116C15.794 5.9119 16.0005 6.95224 16 8.00277ZM5.59084 4.00529C5.73173 4.0114 5.88621 4.01832 6.03389 4.37176C6.13471 4.61379 6.30445 5.0648 6.43955 5.42373C6.53877 5.68737 6.6193 5.90133 6.64009 5.94634C6.68919 6.05261 6.72243 6.17639 6.65671 6.31809C6.64667 6.33974 6.63741 6.36014 6.62857 6.37961C6.57953 6.48761 6.54345 6.56706 6.45993 6.67194C6.42644 6.71399 6.39182 6.75937 6.35724 6.80471C6.29001 6.89284 6.22293 6.98078 6.16457 7.04369C6.06599 7.15078 5.96288 7.26398 6.07808 7.47653C6.19327 7.68908 6.58835 8.38373 7.1734 8.94606C7.80224 9.55043 8.34867 9.80601 8.62586 9.93567C8.68015 9.96106 8.72411 9.98162 8.75634 9.99903C8.95312 10.1053 9.06794 10.0866 9.18277 9.94569C9.29759 9.8048 9.67302 9.32514 9.80408 9.11259C9.93514 8.90004 10.067 8.93343 10.2471 9.00632C10.4273 9.0792 11.3949 9.59225 11.5921 9.69853C11.6305 9.71923 11.6664 9.73789 11.6996 9.75518C11.8369 9.82664 11.9291 9.87462 11.9698 9.9461C12.0204 10.0349 12.0223 10.4579 11.8565 10.9551C11.6907 11.4523 10.8866 11.9266 10.5266 11.9637C10.4927 11.9672 10.459 11.9716 10.4244 11.9761C10.0909 12.0197 9.67026 12.0747 8.16486 11.4344C6.31486 10.6474 5.09469 8.69619 4.84475 8.29652C4.82455 8.26421 4.81069 8.24205 4.80334 8.23145L4.80065 8.22756C4.69295 8.07224 3.99997 7.07289 3.99997 6.03673C3.99997 5.05828 4.44547 4.54582 4.65049 4.30997C4.66449 4.29387 4.67736 4.27906 4.6889 4.26548C4.7546 4.18468 4.83508 4.11938 4.9253 4.0737C5.01551 4.02801 5.11351 4.00292 5.21314 4C5.34458 4 5.47753 4 5.59084 4.00529Z"/>
</svg>
