<svg viewBox="0 0 24 24" xmlns="http://www.w3.org/2000/svg">
    <g clip-path="url(#clip0_889_26729)">
        <path fill-rule="evenodd" clip-rule="evenodd" d="M12.04 0C5.41124 0 0.0400391 5.3724 0.0400391 12C0.0400391 18.6276 5.41124 24 12.04 24C18.6664 24 24.04 18.6276 24.04 12C24.04 5.3724 18.6664 0 12.04 0ZM12.4672 6.79927H13.576V19.1137H16.0576V4.87207H12.454C8.82405 4.87207 6.91004 6.74647 6.91004 9.49207C6.91004 11.6821 7.95405 12.9769 9.81405 14.3101L6.58004 19.1269H9.27285L12.8764 13.7425L11.6224 12.8977C10.1044 11.8669 9.36524 11.0629 9.36524 9.34687C9.36524 7.82887 10.4344 6.79927 12.4672 6.79927Z" />
    </g>
    <defs>
        <clipPath id="clip0_889_26729">
            <rect width="24" height="24"/>
        </clipPath>
    </defs>
</svg>
