<svg viewBox="0 0 32 32" xmlns="http://www.w3.org/2000/svg">
<g id="Icon 24 / Spec Diploma Verified">
<path id="Vector" fill-rule="evenodd" clip-rule="evenodd" d="M17.4789 19.3332C16.6266 18.6068 15.373 18.6068 14.5206 19.3332C14.1554 19.6444 13.7013 19.8325 13.2229 19.8707C12.1066 19.9598 11.2202 20.8462 11.1311 21.9625C11.0929 22.4408 10.9048 22.895 10.5936 23.2602C9.86724 24.1125 9.86724 25.3661 10.5936 26.2184C10.9048 26.5837 11.0929 27.0378 11.1311 27.5162C11.2202 28.6324 12.1066 29.5189 13.2229 29.608C13.7013 29.6461 14.1554 29.8342 14.5206 30.1455C15.373 30.8718 16.6266 30.8718 17.4789 30.1455C17.8441 29.8342 18.2982 29.6461 18.7766 29.608C19.8929 29.5189 20.7793 28.6324 20.8684 27.5162C20.9066 27.0378 21.0947 26.5837 21.4059 26.2184C22.1323 25.3661 22.1323 24.1125 21.4059 23.2602C21.0947 22.895 20.9066 22.4408 20.8684 21.9625C20.7793 20.8462 19.8929 19.9598 18.7766 19.8707C18.2982 19.8325 17.8441 19.6444 17.4789 19.3332ZM18.6823 24.1373C19.0861 23.7605 19.1079 23.1277 18.7311 22.7239C18.3542 22.3202 17.7214 22.2983 17.3177 22.6752L15.1429 24.705L14.6823 24.2752C14.2786 23.8983 13.6458 23.9202 13.2689 24.3239C12.8921 24.7277 12.9139 25.3605 13.3177 25.7373L14.4605 26.804C14.8448 27.1625 15.441 27.1625 15.8252 26.804L18.6823 24.1373Z" fill="#0075FF"/>
<path id="Subtract" opacity="0.4" d="M2.66675 17.3334V10.6667C2.66675 6.89545 2.66675 5.00983 3.83832 3.83826C5.00989 2.66669 6.89551 2.66669 10.6667 2.66669H21.3334C25.1047 2.66669 26.9903 2.66669 28.1618 3.83826C29.3334 5.00983 29.3334 6.89545 29.3334 10.6667V17.3334C29.3334 21.1046 29.3334 22.9902 28.1618 24.1618C27.0475 25.2762 25.287 25.3306 21.8724 25.3332C22.0624 24.6269 21.907 23.8482 21.406 23.2604C21.0947 22.8952 20.9066 22.441 20.8685 21.9627C20.7794 20.8464 19.893 19.96 18.7767 19.8709C18.2983 19.8327 17.8442 19.6446 17.479 19.3334C16.6266 18.607 15.373 18.607 14.5207 19.3334C14.1555 19.6446 13.7014 19.8327 13.223 19.8709C12.1067 19.96 11.2203 20.8464 11.1312 21.9627C11.093 22.441 10.9049 22.8952 10.5937 23.2604C10.0927 23.8482 9.93728 24.6269 10.1273 25.3332C6.71295 25.3306 4.95265 25.2761 3.83832 24.1618C2.66675 22.9902 2.66675 21.1046 2.66675 17.3334Z" fill="#0075FF"/>
<g id="Vector_2">
<path d="M10.9999 8C10.9999 7.44772 11.4476 7 11.9999 7H19.9999C20.5522 7 20.9999 7.44772 20.9999 8C20.9999 8.55228 20.5522 9 19.9999 9H11.9999C11.4476 9 10.9999 8.55228 10.9999 8Z" fill="#0075FF"/>
<path d="M9.33325 11.6667C8.78097 11.6667 8.33325 12.1144 8.33325 12.6667C8.33325 13.219 8.78097 13.6667 9.33325 13.6667H22.6666C23.2189 13.6667 23.6666 13.219 23.6666 12.6667C23.6666 12.1144 23.2189 11.6667 22.6666 11.6667H9.33325Z" fill="#0075FF"/>
</g>
</g>
</svg>
