<svg viewBox="0 0 32 32" xmlns="http://www.w3.org/2000/svg">
<g id="Icon 24 / Spec Plate">
<path id="Vector" opacity="0.4" d="M1.33325 16C1.33325 11.0004 1.33325 8.50054 2.60647 6.7481C3.01767 6.18213 3.51539 5.68442 4.08135 5.27322C5.83379 4 8.33361 4 13.3333 4H18.6666C23.6662 4 26.166 4 27.9185 5.27322C28.4845 5.68442 28.9822 6.18213 29.3934 6.7481C30.6666 8.50054 30.6666 11.0004 30.6666 16C30.6666 20.9996 30.6666 23.4995 29.3934 25.2519C28.9822 25.8179 28.4845 26.3156 27.9185 26.7268C26.166 28 23.6662 28 18.6666 28H13.3333C8.33361 28 5.83379 28 4.08135 26.7268C3.51539 26.3156 3.01767 25.8179 2.60647 25.2519C1.33325 23.4995 1.33325 20.9996 1.33325 16Z" fill="#0075FF"/>
<path id="Vector_2" d="M17 4C17 3.44772 16.5523 3 16 3C15.4477 3 15 3.44772 15 4V6.66667C15 7.21895 15.4477 7.66667 16 7.66667C16.5523 7.66667 17 7.21895 17 6.66667V4Z" fill="#0075FF"/>
<g id="Vector_3">
<path d="M10.6667 13C10.1145 13 9.66675 13.4477 9.66675 14C9.66675 14.5523 10.1145 15 10.6667 15H21.3334C21.8857 15 22.3334 14.5523 22.3334 14C22.3334 13.4477 21.8857 13 21.3334 13H10.6667Z" fill="#0075FF"/>
<path d="M10.6667 17.6667C10.1145 17.6667 9.66675 18.1144 9.66675 18.6667C9.66675 19.219 10.1145 19.6667 10.6667 19.6667H18.0001C18.5524 19.6667 19.0001 19.219 19.0001 18.6667C19.0001 18.1144 18.5524 17.6667 18.0001 17.6667H10.6667Z" fill="#0075FF"/>
</g>
</g>
</svg>
