<svg viewBox="0 0 32 32" xmlns="http://www.w3.org/2000/svg">
<g id="Icon 24 / Spec Shield">
<path id="Vector" fill-rule="evenodd" clip-rule="evenodd" d="M4.50335 6.77657C4 7.49373 4 9.62545 4 13.8889V15.9885C4 23.5059 9.65195 27.154 13.1981 28.7031C14.16 29.1233 14.641 29.3334 16 29.3334V2.66669C14.9181 2.66669 13.8733 3.02434 11.7836 3.73964L11.0199 4.00108C7.0111 5.3733 5.00671 6.05941 4.50335 6.77657Z" fill="#0075FF"/>
<path id="Vector_2" opacity="0.4" d="M28 15.9885V13.8889C28 9.62545 28 7.49373 27.4966 6.77657C26.9933 6.05941 24.9889 5.3733 20.9801 4.00108L20.2164 3.73964C18.1267 3.02434 17.0819 2.66669 16 2.66669V29.3334C17.359 29.3334 17.84 29.1233 18.8019 28.7031C22.348 27.154 28 23.5059 28 15.9885Z" fill="#0075FF"/>
</g>
</svg>
