<svg viewBox="0 0 32 32" xmlns="http://www.w3.org/2000/svg">
<g id="Icon 24 / Spec Star">
<path id="Vector" d="M24.6446 22.3565C23.7962 22.5593 22.9107 22.6667 22.0001 22.6667C15.7409 22.6667 10.6667 17.5926 10.6667 11.3333C10.6667 10.6887 10.7206 10.0566 10.824 9.44141C10.7757 9.48782 10.7258 9.53056 10.6733 9.57042C10.2992 9.85445 9.83322 9.95988 8.90126 10.1707L8.0528 10.3627C4.77322 11.1047 3.13344 11.4758 2.74331 12.7303C2.35318 13.9849 3.47108 15.2921 5.70688 17.9066L6.28531 18.583C6.92064 19.3259 7.23832 19.6974 7.38123 20.157C7.52414 20.6165 7.47612 21.1122 7.38006 22.1034L7.29261 23.0059C6.95459 26.4941 6.78558 28.2383 7.80695 29.0136C8.82831 29.789 10.3636 29.0821 13.4343 27.6682L14.2287 27.3025C15.1013 26.9007 15.5376 26.6998 16.0001 26.6998C16.4626 26.6998 16.8988 26.9007 17.7714 27.3025L18.5659 27.6682C21.6365 29.0821 23.1718 29.789 24.1932 29.0136C25.2146 28.2383 25.0456 26.4941 24.7076 23.0059L24.6446 22.3565Z" fill="#0075FF"/>
<path id="Vector_2" opacity="0.4" d="M12.2041 7.21119L11.7672 7.995C11.2873 8.85593 11.0473 9.2864 10.6731 9.57043C10.7257 9.53057 10.7755 9.48784 10.8238 9.44143C10.7204 10.0567 10.6666 10.6887 10.6666 11.3334C10.6666 17.5926 15.7407 22.6667 21.9999 22.6667C22.9105 22.6667 23.796 22.5593 24.6444 22.3565L24.6199 22.1034C24.5239 21.1122 24.4758 20.6165 24.6187 20.157C24.7617 19.6974 25.0793 19.3259 25.7147 18.583L26.2931 17.9066C28.5289 15.2921 29.6468 13.9849 29.2567 12.7303C28.8665 11.4758 27.2267 11.1048 23.9472 10.3627L23.0987 10.1708C22.1668 9.95989 21.7008 9.85446 21.3266 9.57043C20.9525 9.2864 20.7125 8.85594 20.2326 7.995L19.7957 7.21119C18.1068 4.18152 17.2624 2.66669 15.9999 2.66669C14.7374 2.66669 13.893 4.18152 12.2041 7.21119Z" fill="#0075FF"/>
</g>
</svg>
