<svg viewBox="0 0 25 24" xmlns="http://www.w3.org/2000/svg">
<path fill-rule="evenodd" clip-rule="evenodd" d="M13.0682 6C13.0682 5.44772 12.6204 5 12.0682 5C11.5159 5 11.0682 5.44771 11.0682 6L11.0682 11.0002L6.06836 11.0002C5.51607 11.0002 5.06836 11.4479 5.06836 12.0002C5.06836 12.5524 5.51607 13.0002 6.06836 13.0002L11.0682 13.0002L11.0682 18C11.0682 18.5523 11.5159 19 12.0682 19C12.6204 19 13.0682 18.5523 13.0682 18L13.0682 13.0002L18.0684 13.0002C18.6206 13.0002 19.0684 12.5524 19.0684 12.0002C19.0684 11.4479 18.6206 11.0002 18.0684 11.0002L13.0682 11.0002L13.0682 6Z" />
</svg>
