<svg xmlns="http://www.w3.org/2000/svg" viewBox="0 0 16 16">
    <path fill-rule="evenodd" clip-rule="evenodd" d="M14 8C14 11.3137 11.3137 14 8 14C4.68629 14 2 11.3137 2 8C2 4.68629 4.68629 2 8 2C11.3137 2 14 4.68629 14 8ZM16 8C16 12.4183 12.4183 16 8 16C3.58172 16 0 12.4183 0 8C0 3.58172 3.58172 0 8 0C12.4183 0 16 3.58172 16 8ZM8 9C7.44772 9 7 8.55229 7 8L7 5C7 4.44772 7.44771 4 8 4C8.55228 4 9 4.44772 9 5L9 8C9 8.55229 8.55229 9 8 9ZM7 11C7 10.4477 7.44772 10 8 10C8.55228 10 9 10.4477 9 11C9 11.5523 8.55229 12 8 12C7.44772 12 7 11.5523 7 11Z"/>
</svg>
