<svg viewBox="0 0 16 16" xmlns="http://www.w3.org/2000/svg">
    <path d="M8 4h1a1 1 0 0 0-2 0h1Zm0 4H7a1 1 0 0 0 1 1V8Zm4-1v1a1 1 0 0 0-1-2l1 1ZM8 8V7a1 1 0 0 0-1 2l1-1Zm2 3v1a1 1 0 0 0 1-1h-1ZM8 8l1-1a1 1 0 0 0-2 0l1 1Zm-2 3H5a1 1 0 0 0 1 1v-1Zm2-3 1 1a1 1 0 0 0-1-2v1ZM4 7l1-1a1 1 0 0 0-1 2V7Zm4 1v1a1 1 0 0 0 1-1H8ZM7 4v4h2V4H7Zm1 5 4-1-1-2-3 1v2Zm3-3L8 7v2l4-1-1-2ZM7 9l3 3 1-1-2-4-2 2Zm4 2L9 7 7 9l3 3 1-1ZM7 7l-2 4 1 1 3-3-2-2Zm-1 5 3-3-2-2-2 4 1 1Zm2-5L5 6 4 8l4 1V7ZM4 8l4 1V7L5 6 4 8Zm5 0V4H7v4h2Z"/>
</svg>
