<svg xmlns="http://www.w3.org/2000/svg" viewBox="0 0 16 16" >
    <path fill-rule="evenodd" clip-rule="evenodd" d="M4 0C4.55228 0 5 0.447715 5 1V2H11V1C11 0.447715 11.4477 0 12 0C12.5523 0 13 0.447715 13 1V2C14.6569 2 16 3.34315 16 5V13C16 14.6569 14.6569 16 13 16H3C1.34315 16 0 14.6569 0 13V5C0 3.34315 1.34315 2 3 2V1C3 0.447715 3.44772 0 4 0ZM11 4C11 4.55228 11.4477 5 12 5C12.5523 5 13 4.55228 13 4C13.5523 4 14 4.44772 14 5V6L2 6L2 5C2 4.44772 2.44772 4 3 4C3 4.55228 3.44772 5 4 5C4.55228 5 5 4.55228 5 4H11ZM2 8V13C2 13.5523 2.44772 14 3 14H13C13.5523 14 14 13.5523 14 13V8L2 8ZM3 12C3 11.4477 3.44772 11 4 11H7C7.55228 11 8 11.4477 8 12C8 12.5523 7.55228 13 7 13H4C3.44772 13 3 12.5523 3 12Z" />
</svg>
