<svg viewBox="0 0 16 16" xmlns="http://www.w3.org/2000/svg">
    <path fill-rule="evenodd" clip-rule="evenodd" d="M10.7681 5.64021C11.1217 5.21593 11.0643 4.58537 10.6401 4.2318C10.2158 3.87824 9.58522 3.93556 9.23166 4.35984L4.93268 9.51861L2.70698 7.29292C2.31646 6.90239 1.6833 6.90239 1.29277 7.29292C0.902247 7.68344 0.902247 8.31661 1.29277 8.70713L4.29277 11.7071C4.49144 11.9058 4.76452 12.0117 5.04519 11.999C5.32586 11.9863 5.58823 11.856 5.7681 11.6402L10.7681 5.64021ZM14.7681 5.64021C15.1217 5.21593 15.0643 4.58537 14.6401 4.2318C14.2158 3.87824 13.5852 3.93556 13.2317 4.35984L8.23166 10.3598C7.87809 10.7841 7.93542 11.4147 8.35969 11.7682C8.78397 12.1218 9.41453 12.0645 9.7681 11.6402L14.7681 5.64021Z"/>
</svg>

