<svg xmlns="http://www.w3.org/2000/svg" viewBox="0 0 16 16">
    <path fill-rule="evenodd" clip-rule="evenodd" d="M8 14C11.3137 14 14 11.3137 14 8L15.7973 6.20269C15.9299 6.78042 16 7.38203 16 8C16 12.4183 12.4183 16 8 16C3.58172 16 0 12.4183 0 8C0 3.58172 3.58172 0 8 0C9.69833 0 11.2731 0.529213 12.5683 1.43173L11.1237 2.87627C10.2138 2.32035 9.14433 2 8 2C4.68629 2 2 4.68629 2 8C2 11.3137 4.68629 14 8 14ZM15.7071 3.70711C16.0976 3.31658 16.0976 2.68342 15.7071 2.29289C15.3166 1.90237 14.6834 1.90237 14.2929 2.29289L8 8.58579L5.70711 6.29289C5.31658 5.90237 4.68342 5.90237 4.29289 6.29289C3.90237 6.68342 3.90237 7.31658 4.29289 7.70711L7.29289 10.7071L8 11.4142L8.70711 10.7071L15.7071 3.70711Z" />
</svg>
