<svg xmlns="http://www.w3.org/2000/svg" viewBox="0 0 16 16">
    <path fill-rule="evenodd" clip-rule="evenodd" d="M7.79274 2.70711C7.40222 2.31658 7.40222 1.68342 7.79274 1.29289C8.18327 0.902369 8.81643 0.902369 9.20696 1.29289L15.207 7.29289L15.9141 8L15.207 8.70711L9.20696 14.7071C8.81643 15.0976 8.18327 15.0976 7.79274 14.7071C7.40222 14.3166 7.40222 13.6834 7.79274 13.2929L12.0856 9L1.99988 9L1.99988 14C1.99988 14.5523 1.55216 15 0.999878 15C0.447593 15 -0.00012207 14.5523 -0.00012207 14L-0.00012207 8.00382L-0.000128746 8L-0.000121117 7.99618L-0.000121117 2C-0.000121117 1.44771 0.447595 1 0.999879 1C1.55216 1 1.99988 1.44771 1.99988 2L1.99988 7L12.0856 7L7.79274 2.70711Z" />
</svg>
