<svg xmlns="http://www.w3.org/2000/svg" viewBox="0 0 16 16">
    <path fill-rule="evenodd" clip-rule="evenodd" d="M8.00073 4C6.90073 4 6.00073 4.9 6.00073 6C6.00073 7.1 6.90073 8 8.00073 8C9.10073 8 10.0007 7.1 10.0007 6C10.0007 4.9 9.10073 4 8.00073 4ZM2.50073 9C2.50073 7.68194 3.07451 6.45411 4.02664 5.54503C4.00953 5.69441 4.00073 5.84623 4.00073 6C4.00073 8.2 5.80073 10 8.00073 10C10.2007 10 12.0007 8.2 12.0007 6C12.0007 5.84623 11.9919 5.69441 11.9748 5.54503C12.927 6.45411 13.5007 7.68194 13.5007 9H15.5007C15.5007 5.06015 12.066 2 8.00073 2C3.93547 2 0.500732 5.06015 0.500732 9H2.50073ZM6.00073 14C5.40073 14 5.00073 13.6 5.00073 13C5.00073 12.4 5.40073 12 6.00073 12H10.0007C10.6007 12 11.0007 12.4 11.0007 13C11.0007 13.6 10.6007 14 10.0007 14H6.00073Z"/>
</svg>
