<svg width="24" height="24" viewBox="0 0 24 24" fill="none" xmlns="http://www.w3.org/2000/svg">
<path fill-rule="evenodd" clip-rule="evenodd" d="M14 8C14 8.55228 14.4477 9 15 9C15.5523 9 16 8.55228 16 8C16 7.44772 15.5523 7 15 7C14.4477 7 14 7.44772 14 8ZM17.8293 7C17.4175 5.83481 16.3062 5 15 5C13.6887 5 12.5738 5.84136 12.1659 7.0137C12.1119 7.00469 12.0565 7 12 7L5 7C4.44771 7 4 7.44772 4 8C4 8.55228 4.44771 9 5 9H12C12.0565 9 12.1119 8.99531 12.1659 8.9863C12.5738 10.1586 13.6887 11 15 11C16.3062 11 17.4175 10.1652 17.8293 9H19C19.5523 9 20 8.55228 20 8C20 7.44772 19.5523 7 19 7H17.8293ZM10 16C10 16.5523 9.55228 17 9 17C8.44772 17 8 16.5523 8 16C8 15.4477 8.44772 15 9 15C9.55228 15 10 15.4477 10 16ZM5 17H6.17071C6.58254 18.1652 7.69378 19 9 19C10.3113 19 11.4262 18.1586 11.8341 16.9863C11.8881 16.9953 11.9435 17 12 17L19 17C19.5523 17 20 16.5523 20 16C20 15.4477 19.5523 15 19 15L12 15C11.9435 15 11.8881 15.0047 11.8341 15.0137C11.4262 13.8414 10.3113 13 9 13C7.69378 13 6.58254 13.8348 6.17071 15H5C4.44772 15 4 15.4477 4 16C4 16.5523 4.44772 17 5 17Z" fill="#101828"/>
</svg>
