<svg viewBox="0 0 25 24" xmlns="http://www.w3.org/2000/svg">
<path fill-rule="evenodd" clip-rule="evenodd" d="M12.0681 6C9.29977 6 7.06812 8.23656 7.06812 10.95C7.06812 12.4268 7.76717 13.7884 9.0238 15.2474C9.64842 15.9726 10.3699 16.6751 11.1453 17.3972C11.3626 17.5996 11.5889 17.8077 11.8185 18.0189L12.068 18.2486L12.3144 18.0218C12.5449 17.8097 12.7719 17.6008 12.99 17.3975C13.7653 16.6753 14.4869 15.9724 15.1117 15.2468C16.369 13.7866 17.0681 12.4247 17.0681 10.95C17.0681 8.23656 14.8365 6 12.0681 6ZM11.0165 20H13.1196C13.2906 19.8415 13.4639 19.6821 13.6383 19.5216C16.2208 17.1453 19.0681 14.5254 19.0681 10.95C19.0681 7.11859 15.9276 4 12.0681 4C8.20866 4 5.06812 7.11859 5.06812 10.95C5.06812 14.5272 7.91244 17.1436 10.4948 19.5189L10.4948 19.519L10.4951 19.5192C10.6704 19.6805 10.8446 19.8407 11.0165 20ZM13.5681 11C13.5681 11.8284 12.8965 12.5 12.0681 12.5C11.2397 12.5 10.5681 11.8284 10.5681 11C10.5681 10.1716 11.2397 9.5 12.0681 9.5C12.8965 9.5 13.5681 10.1716 13.5681 11ZM15.5681 11C15.5681 12.933 14.0011 14.5 12.0681 14.5C10.1351 14.5 8.56812 12.933 8.56812 11C8.56812 9.067 10.1351 7.5 12.0681 7.5C14.0011 7.5 15.5681 9.067 15.5681 11Z"/>
</svg>
