<svg viewBox="0 0 16 16" xmlns="http://www.w3.org/2000/svg">
<path fill-rule="evenodd" clip-rule="evenodd" d="M9.28037 0.765315C8.53868 0.147238 7.46132 0.147239 6.71963 0.765315L1.71963 4.93198C1.26365 5.31197 1 5.87487 1 6.46842V13C1 14.6569 2.34315 16 4 16H12C13.6569 16 15 14.6569 15 13V6.46842C15 5.87487 14.7364 5.31197 14.2804 4.93198L9.28037 0.765315ZM8 2.30176L13 6.46842V13C13 13.5523 12.5523 14 12 14H4C3.44772 14 3 13.5523 3 13L3 6.46842L8 2.30176ZM5 11C4.44772 11 4 11.4478 4 12C4 12.5523 4.44772 13 5 13H11C11.5523 13 12 12.5523 12 12C12 11.4478 11.5523 11 11 11H5Z" />
</svg>
