<svg xmlns="http://www.w3.org/2000/svg" viewBox="0 0 16 16" >
    <path fill-rule="evenodd" clip-rule="evenodd" d="M13 2H3C2.44772 2 2 2.44772 2 3V9.28571L3.5 8L6 10L10.5 6L14 9.18182V3C14 2.44772 13.5523 2 13 2ZM16 11V13C16 14.6569 14.6569 16 13 16H3C1.34315 16 0 14.6569 0 13V11V3C0 1.34315 1.34315 0 3 0H13C14.6569 0 16 1.34315 16 3V11ZM14 11.8847L10.485 8.68926L7.32873 11.4948L6.06789 12.6156L4.75061 11.5617L3.54399 10.5964L2 11.9199V13C2 13.5523 2.44772 14 3 14H13C13.5523 14 14 13.5523 14 13V11.8847ZM5.99902 4.5C5.99902 5.32843 5.32745 6 4.49902 6C3.6706 6 2.99902 5.32843 2.99902 4.5C2.99902 3.67157 3.6706 3 4.49902 3C5.32745 3 5.99902 3.67157 5.99902 4.5Z"/>
</svg>
