<svg viewBox="0 0 25 24" xmlns="http://www.w3.org/2000/svg">
<path fill-rule="evenodd" clip-rule="evenodd" d="M12.0681 6C13.1727 6 14.0681 6.89543 14.0681 8L10.0681 8C10.0681 6.89543 10.9635 6 12.0681 6ZM8.06812 8C8.06812 5.79086 9.85898 4 12.0681 4C14.2773 4 16.0681 5.79086 16.0681 8H17.0681C18.1727 8 19.0681 8.89543 19.0681 10V18C19.0681 19.1046 18.1727 20 17.0681 20H7.06812C5.96355 20 5.06812 19.1046 5.06812 18L5.06812 10C5.06812 8.89543 5.96355 8 7.06812 8H8.06812ZM16.0681 10L14.0681 10H10.0681H8.06812H7.06812L7.06812 18H17.0681V10H16.0681ZM11.0681 15C10.5158 15 10.0681 14.5523 10.0681 14C10.0681 13.4477 10.5158 13 11.0681 13L13.0681 13C13.6204 13 14.0681 13.4477 14.0681 14C14.0681 14.5523 13.6204 15 13.0681 15V16C13.0681 16.5523 12.6204 17 12.0681 17C11.5158 17 11.0681 16.5523 11.0681 16V15Z"/>
</svg>
