<svg viewBox="0 0 25 24" xmlns="http://www.w3.org/2000/svg">
<path fill-rule="evenodd" clip-rule="evenodd" d="M4.06836 7.00012C4.06836 6.44784 4.51607 6.00012 5.06836 6.00012L19.0684 6.00012C19.6206 6.00012 20.0684 6.44784 20.0684 7.00012C20.0684 7.55241 19.6206 8.00012 19.0684 8.00012L5.06836 8.00012C4.51607 8.00012 4.06836 7.55241 4.06836 7.00012ZM4.06836 12.0001C4.06836 11.4478 4.51607 11.0001 5.06836 11.0001L19.0684 11.0001C19.6206 11.0001 20.0684 11.4478 20.0684 12.0001C20.0684 12.5524 19.6206 13.0001 19.0684 13.0001L5.06836 13.0001C4.51607 13.0001 4.06836 12.5524 4.06836 12.0001ZM5.06836 16.0001C4.51607 16.0001 4.06836 16.4478 4.06836 17.0001C4.06836 17.5524 4.51607 18.0001 5.06836 18.0001L11.0684 18.0001C11.6206 18.0001 12.0684 17.5524 12.0684 17.0001C12.0684 16.4478 11.6206 16.0001 11.0684 16.0001L5.06836 16.0001Z" />
</svg>
