<svg viewBox="0 0 16 16" xmlns="http://www.w3.org/2000/svg">
<path d="M15 10.4997C15 10.1208 14.786 9.77452 14.4471 9.60513L11.4471 8.10541C11.0622 7.91297 10.5973 7.98843 10.2929 8.29274L8.8042 9.78134L8.79266 9.77449C8.41628 9.55041 7.89718 9.18801 7.35594 8.64675C6.81465 8.10545 6.4514 7.58548 6.22643 7.20805L6.21878 7.19519L7.70703 5.70712C8.01143 5.40276 8.08691 4.93775 7.8944 4.55273L6.3944 1.55267C6.22501 1.21388 5.87875 0.999873 5.49997 0.999878L0.999974 0.999937C0.729399 0.99994 0.470374 1.10959 0.282032 1.30386C0.0936898 1.49813 -0.00789099 1.76043 0.00047918 2.03088L0.999987 1.99995C0.00047918 2.03088 0.000489548 2.03122 0.000500717 2.03157L0.000526679 2.03239L0.00059289 2.0344L0.000786089 2.03995L0.00144913 2.05705C0.002027 2.07109 0.0028942 2.09038 0.004154 2.11468C0.00667304 2.16328 0.0107646 2.232 0.017257 2.319C0.0302364 2.49293 0.0528471 2.7404 0.0917738 3.04671C0.169507 3.65838 0.312972 4.50998 0.577025 5.48218C1.1018 7.41434 2.12177 9.89208 4.11621 11.8866C6.11069 13.8811 8.58772 14.9004 10.5193 15.4245C11.4911 15.6881 12.3424 15.8312 12.9539 15.9087C13.26 15.9475 13.5074 15.97 13.6813 15.9829C13.7683 15.9893 13.8369 15.9934 13.8855 15.9959C13.9098 15.9971 13.9291 15.998 13.9431 15.9985L13.9602 15.9992L13.9658 15.9994L13.9678 15.9995L13.9686 15.9995C13.969 15.9995 13.9693 15.9995 13.9997 14.9999L13.9693 15.9995C14.2397 16.0077 14.5018 15.9061 14.696 15.7178C14.8901 15.5294 14.9997 15.2705 14.9997 15L15 10.4997ZM8.64584 11.9353C8.64612 11.9354 8.64639 11.9355 8.99974 11L8.64639 11.9355L9.2503 12.1636L9.7068 11.7071L11.1974 10.2166L13 11.1177L12.9998 13.897C12.4813 13.8239 11.8037 13.7006 11.043 13.4942C9.29936 13.0211 7.18818 12.1302 5.5304 10.4723C3.87258 8.81447 2.98089 6.70245 2.50707 4.95795C2.30034 4.19679 2.17677 3.5188 2.10338 2.99995L4.88197 2.99991L5.78322 4.80244L4.2927 6.29278L3.83538 6.75004L4.06479 7.3547L4.99974 6.99995C4.06479 7.3547 4.06489 7.35497 4.065 7.35524L4.06521 7.35581L4.06568 7.35704L4.06674 7.3598L4.06936 7.36657L4.07668 7.38507C4.08249 7.39957 4.09018 7.41835 4.09985 7.44117C4.11917 7.48679 4.14642 7.54858 4.18233 7.62442C4.2541 7.776 4.3608 7.98431 4.50849 8.23208C4.80352 8.72705 5.26481 9.38404 5.94174 10.061C6.61871 10.738 7.27506 11.1986 7.76958 11.493C8.01712 11.6404 8.2252 11.7468 8.37666 11.8183C8.45243 11.8541 8.51419 11.8812 8.55981 11.9005C8.58262 11.9101 8.60142 11.9178 8.61593 11.9236L8.63446 11.9309L8.64126 11.9335L8.64404 11.9346L8.64527 11.935L8.64584 11.9353ZM12 5.99995C13.1046 5.99995 14 5.10452 14 3.99995C14 2.89538 13.1046 1.99995 12 1.99995C10.8954 1.99995 9.99999 2.89538 9.99999 3.99995C9.99999 5.10452 10.8954 5.99995 12 5.99995Z" />
</svg>
