<svg viewBox="0 0 16 16" xmlns="http://www.w3.org/2000/svg">
    <path fill-rule="evenodd" clip-rule="evenodd" d="M11.2071 11.2071C11.5976 10.8166 11.5976 10.1834 11.2071 9.79289C10.8166 9.40237 10.1834 9.40237 9.79289 9.79289L8 11.5858L6.20711 9.79289C5.81658 9.40237 5.18342 9.40237 4.79289 9.79289C4.40237 10.1834 4.40237 10.8166 4.79289 11.2071L7.29289 13.7071C7.68342 14.0976 8.31658 14.0976 8.70711 13.7071L11.2071 11.2071ZM11.2071 4.79289C11.5976 5.18342 11.5976 5.81658 11.2071 6.20711C10.8166 6.59763 10.1834 6.59763 9.79289 6.20711L8 4.41421L6.20711 6.20711C5.81658 6.59763 5.18342 6.59763 4.79289 6.20711C4.40237 5.81658 4.40237 5.18342 4.79289 4.79289L7.29289 2.29289C7.48043 2.10536 7.73478 2 8 2C8.26522 2 8.51957 2.10536 8.70711 2.29289L11.2071 4.79289Z" />
</svg>
