<svg viewBox="0 0 16 16" xmlns="http://www.w3.org/2000/svg">
<path id="Shape" fill-rule="evenodd" clip-rule="evenodd" d="M8.89249 0.548878C8.72233 0.212244 8.37723 0 8.00003 0C7.62283 0 7.27773 0.212244 7.10757 0.548878L5.17984 4.36254L0.859565 4.97547C0.479961 5.02933 0.164568 5.29548 0.0476565 5.66063C-0.0692554 6.02577 0.0328986 6.42562 0.310629 6.68994L3.42238 9.65143L2.68887 13.827C2.6232 14.2009 2.77487 14.5797 3.08043 14.8049C3.38599 15.0302 3.79274 15.063 4.13045 14.8896L8.00003 12.9034L11.8696 14.8896C12.2073 15.063 12.6141 15.0302 12.9196 14.8049C13.2252 14.5797 13.3769 14.2009 13.3112 13.827L12.5777 9.65143L15.6894 6.68994C15.9672 6.42562 16.0693 6.02577 15.9524 5.66063C15.8355 5.29548 15.5201 5.02933 15.1405 4.97547L10.8202 4.36254L8.89249 0.548878ZM6.72937 5.73046L8.00003 3.2167L9.27069 5.73046L9.50607 6.19613L10.0227 6.26942L12.8141 6.66545L10.8106 8.57218L10.4224 8.94168L10.5151 9.46957L10.9933 12.1917L8.45669 10.8897L8.00003 10.6553L7.54338 10.8897L5.00676 12.1917L5.48495 9.46957L5.57768 8.94168L5.18943 8.57218L3.18596 6.66545L5.97738 6.26942L6.49399 6.19613L6.72937 5.73046Z" />
</svg>
