<svg xmlns="http://www.w3.org/2000/svg" viewBox="0 0 24 24">
    <path fill-rule="evenodd" clip-rule="evenodd" d="M21 12C21 16.9706 16.9706 21 12 21C7.02944 21 3 16.9706 3 12C3 7.02944 7.02944 3 12 3C16.9706 3 21 7.02944 21 12ZM23 12C23 18.0751 18.0751 23 12 23C5.92487 23 1 18.0751 1 12C1 5.92487 5.92487 1 12 1C18.0751 1 23 5.92487 23 12ZM13 7C13 6.44772 12.5523 6 12 6C11.4477 6 11 6.44772 11 7V12V12.5884L11.5144 12.8742L16.0144 15.3742C16.4971 15.6424 17.1059 15.4684 17.3742 14.9856C17.6424 14.5029 17.4684 13.8941 16.9856 13.6258L13 11.4116V7Z"/>
</svg>
