<svg xmlns="http://www.w3.org/2000/svg" viewBox="0 0 16 16">
    <path fill-rule="evenodd" clip-rule="evenodd" d="M6 3C6 2.44772 6.44772 2 7 2H9C9.55229 2 10 2.44772 10 3H6ZM4 3C4 1.34315 5.34315 0 7 0H9C10.6569 0 12 1.34315 12 3H14L15 3C15.5523 3 16 3.44772 16 4C16 4.55229 15.5523 5 15 5L14 5V13C14 14.6569 12.6569 16 11 16H5C3.34315 16 2 14.6569 2 13V5H1C0.447715 5 0 4.55228 0 4C0 3.44772 0.447715 3 1 3H2H4ZM4 5V13C4 13.5523 4.44772 14 5 14H11C11.5523 14 12 13.5523 12 13V5H10H6H4ZM6 7.66675C6.55228 7.66675 7 8.11446 7 8.66675L7 12.0001C7 12.5524 6.55228 13.0001 6 13.0001C5.44771 13.0001 5 12.5524 5 12.0001L5 8.66675C5 8.11446 5.44772 7.66675 6 7.66675ZM11 8.66675C11 8.11446 10.5523 7.66675 10 7.66675C9.44771 7.66675 9 8.11446 9 8.66675V12.0001C9 12.5524 9.44771 13.0001 10 13.0001C10.5523 13.0001 11 12.5524 11 12.0001V8.66675Z"/>
</svg>
