<svg xmlns="http://www.w3.org/2000/svg" viewBox="0 0 16 16">
    <path fill-rule="evenodd" clip-rule="evenodd" d="M10.5 4.5C10.5 5.88071 9.38071 7 8 7C6.61929 7 5.5 5.88071 5.5 4.5C5.5 3.11929 6.61929 2 8 2C9.38071 2 10.5 3.11929 10.5 4.5ZM12.5 4.5C12.5 6.98528 10.4853 9 8 9C5.51472 9 3.5 6.98528 3.5 4.5C3.5 2.01472 5.51472 0 8 0C10.4853 0 12.5 2.01472 12.5 4.5ZM8.00003 11C5.38723 11 3.01474 11.8689 1.36432 13.2281C0.937996 13.5792 0.877007 14.2094 1.2281 14.6357C1.57919 15.062 2.20941 15.123 2.63574 14.7719C3.8996 13.7311 5.81283 13 8.00003 13C10.1872 13 12.1005 13.7311 13.3643 14.7719C13.7906 15.123 14.4209 15.062 14.772 14.6357C15.1231 14.2094 15.0621 13.5792 14.6357 13.2281C12.9853 11.8689 10.6128 11 8.00003 11Z" />
</svg>
