<svg xmlns="http://www.w3.org/2000/svg" viewBox="0 0 16 16">
    <path fill-rule="evenodd" clip-rule="evenodd" d="M6 2L13 2C13.5523 2 14 2.44772 14 3V4C14 4.55228 13.5523 5 13 5L6 5L6 2ZM4 2H3C2.44772 2 2 2.44772 2 3V4C2 4.55228 2.44772 5 3 5L4 5L4 2ZM0 3C0 1.34315 1.34315 0 3 0L13 0C14.6569 0 16 1.34315 16 3V4C16 5.65685 14.6569 7 13 7L3 7C1.34315 7 0 5.65685 0 4L0 3ZM3 11H4L4 14H3C2.44772 14 2 13.5523 2 13L2 12C2 11.4477 2.44772 11 3 11ZM6 14V11L13 11C13.5523 11 14 11.4477 14 12V13C14 13.5523 13.5523 14 13 14L6 14ZM0 12C0 10.3431 1.34315 9 3 9L13 9C14.6569 9 16 10.3431 16 12V13C16 14.6569 14.6569 16 13 16L3 16C1.34315 16 0 14.6569 0 13L0 12Z" />
</svg>
