<svg viewBox="0 0 16 16" xmlns="http://www.w3.org/2000/svg">
    <path fill-rule="evenodd" clip-rule="evenodd" d="M10.1716 2H10V4H12.1716L10.1716 2ZM4 2H8V5V6H9H13V13C13 13.5523 12.5523 14 12 14H4C3.44772 14 3 13.5523 3 13V3C3 2.44772 3.44772 2 4 2ZM4 0C2.34315 0 1 1.34315 1 3V13C1 14.6569 2.34315 16 4 16H12C13.6569 16 15 14.6569 15 13V4.82843C15 4.29799 14.7893 3.78929 14.4142 3.41421L11.5858 0.585786C11.2107 0.210714 10.702 0 10.1716 0H4ZM5 11C4.44772 11 4 11.4477 4 12C4 12.5523 4.44772 13 5 13H9C9.55228 13 10 12.5523 10 12C10 11.4477 9.55228 11 9 11H5Z"/>
</svg>
