<svg viewBox="0 0 16 16" xmlns="http://www.w3.org/2000/svg">
    <path fill-rule="evenodd" clip-rule="evenodd" d="M13 2H3C2.44772 2 2 2.44772 2 3V4.17071C2.31278 4.06015 2.64936 4 3 4H13C13.3506 4 13.6872 4.06015 14 4.17071V3C14 2.44772 13.5523 2 13 2ZM2 8V7C2 6.44772 2.44772 6 3 6H13C13.5523 6 14 6.44772 14 7V8H11H10.382L10.1056 8.55279L9.38197 10H6.61803L5.89443 8.55279L5.61803 8H5H2ZM2 10V13C2 13.5523 2.44772 14 3 14H13C13.5523 14 14 13.5523 14 13V10H11.618L11.1708 10.8944C10.832 11.572 10.1395 12 9.38197 12H6.61803C5.86049 12 5.16796 11.572 4.82918 10.8944L4.38197 10H2ZM0 3V7V13C0 14.6569 1.34315 16 3 16H13C14.6569 16 16 14.6569 16 13V7V3C16 1.34315 14.6569 0 13 0H3C1.34315 0 0 1.34315 0 3Z" />
</svg>
