<svg viewBox="0 0 16 16" xmlns="http://www.w3.org/2000/svg">
    <path fill-rule="evenodd" clip-rule="evenodd" d="M8 4C6.9 4 6 4.9 6 6C6 7.1 6.9 8 8 8C9.1 8 10 7.1 10 6C10 4.9 9.1 4 8 4ZM2.5 9C2.5 7.68194 3.07377 6.45411 4.0259 5.54503C4.00879 5.69441 4 5.84623 4 6C4 8.2 5.8 10 8 10C10.2 10 12 8.2 12 6C12 5.84623 11.9912 5.69441 11.9741 5.54503C12.9262 6.45411 13.5 7.68194 13.5 9H15.5C15.5 5.06015 12.0653 2 8 2C3.93474 2 0.5 5.06015 0.5 9H2.5ZM6 14C5.4 14 5 13.6 5 13C5 12.4 5.4 12 6 12H10C10.6 12 11 12.4 11 13C11 13.6 10.6 14 10 14H6Z" />
</svg>
