<svg viewBox="0 0 16 16" xmlns="http://www.w3.org/2000/svg">
    <path id="Shape" fill-rule="evenodd" clip-rule="evenodd" d="M3 0C1.34315 0 0 1.34315 0 3V13C0 14.6569 1.34315 16 3 16H3.5H5.5H10.5H12.5H13C14.6569 16 16 14.6569 16 13V3C16 1.34315 14.6569 0 13 0H11V2H5V0H3ZM8 11H9.5C11.1569 11 12.5 12.3431 12.5 14H13C13.5523 14 14 13.5523 14 13V3C14 2.44772 13.5523 2 13 2H11V4L5 4V2H3C2.44772 2 2 2.44772 2 3V13C2 13.5523 2.44772 14 3 14H3.5C3.5 12.3431 4.84315 11 6.5 11H8ZM8 11C9.65685 11 11 9.65685 11 8C11 6.34315 9.65685 5 8 5C6.34315 5 5 6.34315 5 8C5 9.65685 6.34315 11 8 11ZM9.5 13C10.0523 13 10.5 13.4477 10.5 14H5.5C5.5 13.4477 5.94772 13 6.5 13H9.5ZM9 8C9 8.55228 8.55228 9 8 9C7.44772 9 7 8.55228 7 8C7 7.44772 7.44772 7 8 7C8.55228 7 9 7.44772 9 8Z" />
</svg>
