<svg viewBox="0 0 16 16" xmlns="http://www.w3.org/2000/svg">
    <path fill-rule="evenodd" clip-rule="evenodd" d="M0 3C0 1.34315 1.34315 0 3 0H13C14.6569 0 16 1.34315 16 3V8H14V3C14 2.44772 13.5523 2 13 2H3C2.44772 2 2 2.44772 2 3V13C2 13.5523 2.44772 14 3 14H8V16H3C1.34315 16 0 14.6569 0 13V3ZM15.2071 15.2071C14.2643 16.1499 12.7357 16.1499 11.7929 15.2072L8.29291 11.7074L8 11.4145V11.0002V9.41421L7.58579 9H5C4.44772 9 4 8.55229 4 8C4 7.44772 4.44772 7 5 7H8H8.41421L8.70711 7.29289L9.41446 8.00024H11H11.4142L11.7071 8.29312L15.207 11.7929C16.1499 12.7357 16.1499 14.2643 15.2071 15.2071ZM13.2071 13.7929C13.3688 13.9547 13.6311 13.9547 13.7929 13.7929C13.9546 13.6312 13.9546 13.3689 13.7929 13.2071L10.5858 10.0002H10V10.586L13.2071 13.7929ZM5 4C4.44772 4 4 4.44772 4 5C4 5.55228 4.44772 6 5 6L11 6C11.5523 6 12 5.55228 12 5C12 4.44771 11.5523 4 11 4L5 4ZM4 11C4 10.4477 4.44772 10 5 10H7V12H5C4.44772 12 4 11.5523 4 11Z" />
</svg>
