<svg width="16" height="16" viewBox="0 0 16 16" fill="none" xmlns="http://www.w3.org/2000/svg">
<g id="Icon 16 / Task 3">
<path id="Shape" fill-rule="evenodd" clip-rule="evenodd" d="M0 3C0 1.34315 1.34315 0 3 0H5V2H3C2.44772 2 2 2.44772 2 3V13C2 13.5523 2.44772 14 3 14H13C13.5523 14 14 13.5523 14 13V3C14 2.44772 13.5523 2 13 2H11V0H13C14.6569 0 16 1.34315 16 3V13C16 14.6569 14.6569 16 13 16H3C1.34315 16 0 14.6569 0 13V3ZM9 4H11V2H5V4H7V5C7 5.55228 7.44772 6 8 6C8.55228 6 9 5.55228 9 5V4ZM5 7C4.44772 7 4 7.44772 4 8C4 8.55229 4.44772 9 5 9L11 9C11.5523 9 12 8.55228 12 8C12 7.44771 11.5523 7 11 7L5 7ZM4 11C4 10.4477 4.44772 10 5 10H8C8.55229 10 9 10.4477 9 11C9 11.5523 8.55229 12 8 12H5C4.44772 12 4 11.5523 4 11Z" fill="#101828"/>
</g>
</svg>
