<svg viewBox="0 0 16 16" xmlns="http://www.w3.org/2000/svg">
    <path fill-rule="evenodd" clip-rule="evenodd" d="M0 3C0 1.34315 1.34315 0 3 0H13C14.6569 0 16 1.34315 16 3V8H14V3C14 2.44772 13.5523 2 13 2H3C2.44772 2 2 2.44772 2 3V13C2 13.5523 2.44772 14 3 14H8V16H3C1.34315 16 0 14.6569 0 13V3ZM4 5C4 4.44772 4.44772 4 5 4L11 4C11.5523 4 12 4.44771 12 5C12 5.55228 11.5523 6 11 6L5 6C4.44772 6 4 5.55228 4 5ZM5 10C4.44772 10 4 10.4477 4 11C4 11.5523 4.44772 12 5 12H7V10H5ZM4 8C4 7.44772 4.44772 7 5 7H11C11.5523 7 12 7.44772 12 8C12 8.55229 11.5523 9 11 9H5C4.44772 9 4 8.55229 4 8ZM15.7593 11.6508C16.1187 11.2315 16.0701 10.6002 15.6508 10.2407C15.2315 9.88132 14.6002 9.92988 14.2407 10.3492L11.8505 13.1379L10.6 12.2C10.1582 11.8686 9.53137 11.9582 9.2 12.4C8.86863 12.8418 8.95817 13.4686 9.4 13.8L11.4 15.3L12.1495 15.8621L12.7593 15.1508L15.7593 11.6508Z" />
</svg>

