<svg width="16" height="16" viewBox="0 0 16 16" fill="none" xmlns="http://www.w3.org/2000/svg">
<g id="Icon 16 / Users">
<path id="Shape" fill-rule="evenodd" clip-rule="evenodd" d="M8 4C8 5.10457 7.10457 6 6 6C4.89543 6 4 5.10457 4 4C4 2.89543 4.89543 2 6 2C7.10457 2 8 2.89543 8 4ZM10 4C10 6.20914 8.20914 8 6 8C3.79086 8 2 6.20914 2 4C2 1.79086 3.79086 0 6 0C8.20914 0 10 1.79086 10 4ZM2 12C2 11.4477 2.44772 11 3 11H9C9.55229 11 10 11.4477 10 12V16H12V12C12 10.3431 10.6569 9 9 9H3C1.34315 9 0 10.3431 0 12V16H2V12ZM12 4C12 2.89543 11.1046 2 10 2V0C12.2091 0 14 1.79086 14 4C14 6.20914 12.2091 8 10 8V6C11.1046 6 12 5.10457 12 4ZM12 11H13C13.5523 11 14 11.4477 14 12V16H16V12C16 10.3431 14.6569 9 13 9H12V11Z" fill="#101828"/>
</g>
</svg>
